<?xml version="1.0" encoding="utf-8"?><svg xmlns="http://www.w3.org/2000/svg" xmlns:xlink="http://www.w3.org/1999/xlink"><symbol viewBox="0 0 428.429 428.429" id="basket" xmlns="http://www.w3.org/2000/svg"><path d="M426.59 170.59c-2.597-21.785-22.362-37.34-44.147-34.743H360.5C357.122 59.212 293.531-.91 216.827.01h-5.224C134.898-.91 71.308 59.212 67.929 135.847H45.986c-21.785-2.597-41.55 12.958-44.147 34.743-2.597 21.785 12.958 41.55 34.743 44.147v162.482c-.006 28.277 22.912 51.205 51.189 51.211.352 0 .704-.004 1.056-.011h250.775c28.271.577 51.657-21.873 52.234-50.144.007-.352.011-.704.011-1.056V214.737c21.785-2.597 37.34-22.362 34.743-44.147zM211.602 20.908h5.224c64.558.629 117.896 50.562 122.775 114.939H88.827c4.88-64.377 58.217-114.309 122.775-114.939zm159.347 356.311c.01 16.735-13.549 30.31-30.284 30.32-.354 0-.709-.006-1.063-.018H88.827c-16.725.577-30.752-12.514-31.329-29.239a31.404 31.404 0 0 1-.018-1.063V214.215h313.469v163.004zm11.494-183.902H45.986c-10.099 0-18.286-8.187-18.286-18.286 0-10.099 8.187-18.286 18.286-18.286h336.457c10.099 0 18.286 8.187 18.286 18.286 0 10.099-8.187 18.286-18.286 18.286z"/><path d="M214.215 365.202c5.771 0 10.449-4.678 10.449-10.449v-83.592c.297-5.474-3.901-10.152-9.375-10.449a10.125 10.125 0 0 0-1.074 0c-5.474-.297-10.152 3.901-10.449 9.375-.019.358-.019.716 0 1.074v83.592c0 5.771 4.678 10.449 10.449 10.449zm78.367 0c5.771 0 10.449-4.678 10.449-10.449v-83.592c.297-5.474-3.901-10.152-9.375-10.449a10.125 10.125 0 0 0-1.074 0c-5.474-.297-10.152 3.901-10.449 9.375-.019.358-.019.716 0 1.074v83.592c0 5.771 4.678 10.449 10.449 10.449zm-156.735 0c5.771 0 10.449-4.678 10.449-10.449v-83.592c.297-5.474-3.901-10.152-9.375-10.449a10.125 10.125 0 0 0-1.074 0c-5.474-.297-10.152 3.901-10.449 9.375-.019.358-.019.716 0 1.074v83.592c0 5.771 4.679 10.449 10.449 10.449z"/></symbol><symbol viewBox="0 0 129 129" id="down-arrow" xmlns="http://www.w3.org/2000/svg"><path d="M121.3 34.6c-1.6-1.6-4.2-1.6-5.8 0l-51 51.1-51.1-51.1c-1.6-1.6-4.2-1.6-5.8 0-1.6 1.6-1.6 4.2 0 5.8l53.9 53.9c.8.8 1.8 1.2 2.9 1.2 1 0 2.1-.4 2.9-1.2l53.9-53.9c1.7-1.6 1.7-4.2.1-5.8z"/></symbol><symbol viewBox="0 0 129 129" id="favorites" xmlns="http://www.w3.org/2000/svg"><path d="M121.6 40.1c-3.3-16.6-15.1-27.3-30.3-27.3-8.5 0-17.7 3.5-26.7 10.1-9.1-6.8-18.3-10.3-26.9-10.3-15.2 0-27.1 10.8-30.3 27.6-4.8 24.9 10.6 58 55.7 76 .5.2 1 .3 1.5.3s1-.1 1.5-.3c45-18.4 60.3-51.4 55.5-76.1zm-57 67.9C25 91.6 11.3 63 15.4 41.7c2.4-12.7 11.2-21 22.3-21 7.5 0 15.9 3.6 24.3 10.5 1.5 1.2 3.6 1.2 5.1 0C75.5 24.5 83.8 21 91.3 21c11.1 0 19.8 8.1 22.3 20.7 4.1 21.1-9.5 49.6-49 66.3z"/></symbol><symbol viewBox="0 0 478.613 478.613" id="github-big-logo" xmlns="http://www.w3.org/2000/svg"><path d="M427.501 200.695c1.776-11.238 2.884-23.56 3.163-37.377-.107-59.246-28.468-80.21-33.925-90.038 8.037-44.89-1.331-65.309-5.688-72.299-16.07-5.704-55.91 14.722-77.678 29.101-35.491-10.389-110.494-9.375-138.621 2.689C122.856-4.389 95.408 1.277 95.408 1.277s-17.745 31.82-4.691 78.371c-17.075 21.759-29.802 37.143-29.802 77.949 0 9.773.607 19.008 1.637 27.893 14.705 77.318 75.97 110.674 136.15 116.426-9.056 6.881-19.928 19.903-21.432 34.992-11.379 7.357-34.268 9.789-52.067 4.193-24.939-7.88-34.486-57.266-71.833-50.221-8.081 1.512-6.475 6.842.523 11.386 11.378 7.38 22.094 16.554 30.354 36.185 6.344 15.072 19.687 41.982 61.873 41.982 16.747 0 28.477-1.979 28.477-1.979s.319 38.406.319 53.385c0 17.238-23.264 22.078-23.264 30.348 0 3.289 7.7 3.601 13.888 3.601 12.229 0 37.673-10.186 37.673-28.103 0-14.237.227-62.081.227-70.46 0-18.307 9.811-24.136 9.811-24.136s1.201 97.727-2.361 110.829c-4.177 15.408-11.744 13.219-11.744 20.076 0 10.233 30.589 2.502 40.735-19.897 7.849-17.495 4.334-113.331 4.334-113.331l8.183-.178s.094 43.892-.188 63.944c-.295 20.769-2.438 47.025 9.898 59.417 8.097 8.15 32.903 22.451 32.903 9.382 0-7.574-17.371-13.833-17.371-34.353V344.45c10.553 0 12.734 31.072 12.734 31.072l3.804 57.727s-2.526 21.065 22.756 29.856c8.925 3.126 28.018 3.976 28.913-1.271.897-5.26-22.99-13.038-23.217-29.342-.123-9.93.445-15.742.445-58.934 0-43.168-5.799-59.137-26.007-71.863 58.601-6.014 119.468-32.185 130.433-101z"/></symbol><symbol viewBox="0 0 169.063 169.063" id="instagram-logo" xmlns="http://www.w3.org/2000/svg"><path d="M122.406 0H46.654C20.929 0 0 20.93 0 46.655v75.752c0 25.726 20.929 46.655 46.654 46.655h75.752c25.727 0 46.656-20.93 46.656-46.655V46.655C169.063 20.93 148.133 0 122.406 0zm31.657 122.407c0 17.455-14.201 31.655-31.656 31.655H46.654C29.2 154.063 15 139.862 15 122.407V46.655C15 29.201 29.2 15 46.654 15h75.752c17.455 0 31.656 14.201 31.656 31.655v75.752z"/><path d="M84.531 40.97c-24.021 0-43.563 19.542-43.563 43.563 0 24.02 19.542 43.561 43.563 43.561s43.563-19.541 43.563-43.561c0-24.021-19.542-43.563-43.563-43.563zm0 72.123c-15.749 0-28.563-12.812-28.563-28.561 0-15.75 12.813-28.563 28.563-28.563s28.563 12.813 28.563 28.563c0 15.749-12.814 28.561-28.563 28.561zm45.39-84.842c-2.89 0-5.729 1.17-7.77 3.22a11.053 11.053 0 0 0-3.23 7.78c0 2.891 1.18 5.73 3.23 7.78 2.04 2.04 4.88 3.22 7.77 3.22 2.9 0 5.73-1.18 7.78-3.22 2.05-2.05 3.22-4.89 3.22-7.78 0-2.9-1.17-5.74-3.22-7.78-2.04-2.05-4.88-3.22-7.78-3.22z"/></symbol><symbol viewBox="0 0 487.7 487.7" id="list" xmlns="http://www.w3.org/2000/svg"><path d="M80.2 62.7c-4.8-4.8-12.5-4.8-17.3-.1-4.9 4.8-4.9 12.5-.1 17.3L92 109.3c2.3 2.3 5.4 3.6 8.7 3.6 3.2 0 6.3-1.3 8.6-3.6l88.9-88.4c4.8-4.8 4.8-12.5.1-17.3-4.8-4.8-12.5-4.8-17.3 0l-26.9 26.7C139.8 15.5 119.9 7 99 7 56.7 7 22.3 41.4 22.3 83.7s34.4 76.7 76.7 76.7c34.1 0 63.6-21.9 73.5-54.5 2-6.5-1.7-13.3-8.2-15.3-6.5-1.9-13.3 1.7-15.3 8.2-6.6 21.8-27.2 37.1-50 37.1-28.8 0-52.2-23.4-52.2-52.2S70.2 31.5 99 31.5c14.3 0 27.9 6 37.7 16.2l-35.9 35.7-20.6-20.7zM99 170.6c-42.3 0-76.7 34.4-76.7 76.7S56.7 324 99 324s76.7-34.4 76.7-76.7-34.4-76.7-76.7-76.7zm0 128.9c-28.8 0-52.2-23.4-52.2-52.2s23.4-52.2 52.2-52.2 52.2 23.4 52.2 52.2-23.4 52.2-52.2 52.2zM175.7 411c0-42.3-34.4-76.7-76.7-76.7S22.3 368.7 22.3 411s34.4 76.7 76.7 76.7 76.7-34.4 76.7-76.7zM99 463.3c-28.8 0-52.2-23.4-52.2-52.2s23.4-52.2 52.2-52.2 52.2 23.4 52.2 52.2-23.4 52.2-52.2 52.2zM453.1 235H214.8c-6.8 0-12.3 5.5-12.3 12.3s5.5 12.3 12.3 12.3h238.3c6.8 0 12.3-5.5 12.3-12.3s-5.5-12.3-12.3-12.3zm0-163.5H214.8c-6.8 0-12.3 5.5-12.3 12.3s5.5 12.3 12.3 12.3h238.3c6.8 0 12.3-5.5 12.3-12.3s-5.5-12.3-12.3-12.3zm0 327.3H214.8c-6.8 0-12.3 5.5-12.3 12.3s5.5 12.3 12.3 12.3h238.3c6.8 0 12.3-5.5 12.3-12.3 0-6.9-5.5-12.3-12.3-12.3z"/></symbol><symbol viewBox="0 0 512 512" id="login" xmlns="http://www.w3.org/2000/svg"><path d="M341.598 290.667a10.626 10.626 0 0 0 1.365-11.349l-.555-1.195c4.501-6.187 10.261-15.957 10.261-32.768 0-7.552 2.24-10.667 2.581-10.987a10.668 10.668 0 0 0 7.317-6.379c1.195-2.923 11.435-29.077 11.435-46.635 0-.896-.107-1.771-.299-2.603-1.173-4.672-4.437-11.52-10.347-15.531v-56.555c0-34.368-10.496-48.448-21.568-56.64C339.699 33.472 321.971 0 256.67 0c-66.091 0-106.667 62.123-106.667 106.667v56.555c-5.909 4.011-9.173 10.859-10.347 15.531-.213.853-.32 1.707-.32 2.581 0 17.557 10.24 43.712 11.435 46.635 1.28 3.179 3.136 5.291 6.485 6.123 1.173.576 3.413 3.691 3.413 11.243 0 20.267 15.211 42.795 31.531 57.771-2.219 13.973-12.651 50.816-34.901 60.117l-94.677 31.552c-24.341 8.107-42.581 27.819-48.832 52.736L.968 498.752c-.789 3.179-.085 6.571 1.963 9.152 2.048 2.581 5.12 4.096 8.405 4.096h.021l276.011-.277c5.867 0 10.624-4.928 10.624-10.816v-128c0-11.819 6.635-22.613 17.28-28.203a10.671 10.671 0 0 0 5.589-7.808c2.625-16.917 9.793-32.896 20.737-46.229z"/><path d="M500.681 362.219h-10.667v-10.667c0-41.173-33.493-74.667-74.667-74.667s-74.667 33.493-74.667 74.667v10.667h-10.667c-5.888 0-10.667 4.779-10.667 10.667v128c0 5.888 4.779 10.667 10.667 10.667H500.68c5.888 0 10.667-4.779 10.667-10.667v-128c0-5.889-4.778-10.667-10.666-10.667zm-74.667 82.069v13.952c0 5.888-4.779 10.667-10.667 10.667s-10.667-4.779-10.667-10.667v-13.952c-6.251-3.733-10.667-10.261-10.667-18.048 0-11.755 9.557-21.333 21.333-21.333s21.333 9.579 21.333 21.333c.002 7.787-4.415 14.315-10.665 18.048zm42.667-82.069H362.014v-10.667c0-29.397 23.915-53.333 53.333-53.333s53.333 23.936 53.333 53.333v10.667z"/></symbol><symbol viewBox="0 0 424.98 424.98" id="payment" xmlns="http://www.w3.org/2000/svg"><path d="M241.395 282.304c-1.587-1.738-3.595-3.038-5.67-4.121-4.518-2.356-9.459-3.785-14.365-5.075v38.016c7.963-.9 17.105-3.79 21.286-11.224 1.996-3.551 2.393-7.914 1.58-11.867-.441-2.142-1.352-4.108-2.831-5.729z"/><path d="M242.604 299.973l.042-.073a4.74 4.74 0 0 0-.042.073zm-58.595-78.441c-1.369 1.999-2.228 4.27-2.465 6.684-.237 2.419-.104 5.11.815 7.387.875 2.17 2.708 3.772 4.6 5.062 2.123 1.444 4.458 2.572 6.836 3.528 1.995.803 4.239 1.571 6.658 2.313v-34.4c-6.111 1.304-12.788 4.088-16.444 9.426zm58.795 78.087c-.05.089-.104.182-.157.28.062-.114.111-.198.157-.28zm.2-.356c.013-.024.015-.026 0 0z"/><path d="M234.753 92.469c32.329-27.158 53.931-88.341 40.637-91.017-17.664-3.557-56.022 12.04-74.562 14.788-26.296 3.175-54.936-28.515-71.012-10.851-13.071 14.362 9.371 66.592 44.482 89.346-104.752 51.484-251.988 309.938 4.873 328.691 355.411 25.949 177.444-280.787 55.582-330.957zm30.523 203.829c-1.093 10.076-6.433 19.188-14.415 25.374-8.428 6.532-18.999 9.57-29.502 10.421v11.133c0 2.979-1.301 5.86-3.531 7.832-3.065 2.712-7.569 3.381-11.289 1.667-3.673-1.69-6.086-5.457-6.086-9.499v-12.168a68.538 68.538 0 0 1-5.356-1.234c-9.816-2.697-18.921-7.954-25.572-15.732-3.313-3.877-6.014-8.276-7.882-13.025a47.162 47.162 0 0 1-1.304-3.783c-.345-1.157-.701-2.333-.824-3.539a10.46 10.46 0 0 1 1.137-5.889c1.938-3.707 6.022-5.946 10.192-5.574 4.104.364 7.701 3.212 8.993 7.124.398 1.205.668 2.44 1.115 3.632a23.292 23.292 0 0 0 1.607 3.431 26.647 26.647 0 0 0 4.59 5.875c3.694 3.559 8.399 5.872 13.304 7.248V268.23c-9.591-2.483-19.491-5.69-27.411-11.848-3.849-2.994-7.115-6.714-9.254-11.117-2.257-4.647-3.192-9.824-3.23-14.966-.039-5.221.953-10.396 3.131-15.153 2.04-4.454 4.977-8.453 8.578-11.768 7.7-7.087 17.928-11.04 28.187-12.492v-11.557c0-2.978 1.301-5.86 3.531-7.832 3.066-2.711 7.568-3.381 11.289-1.667 3.672 1.691 6.086 5.457 6.086 9.499v11.494c1.367.172 2.73.378 4.086.624 10.074 1.823 19.927 5.983 27.294 13.246a39.888 39.888 0 0 1 8.356 12.009 38.31 38.31 0 0 1 1.477 3.824c.396 1.213.794 2.462.983 3.728a10.467 10.467 0 0 1-.871 5.958c-1.772 3.788-5.746 6.2-9.927 6.021-4.108-.179-7.83-2.854-9.301-6.694-.438-1.142-.657-2.351-1.104-3.49a18.419 18.419 0 0 0-1.708-3.292c-1.308-2.02-3.003-3.752-4.938-5.179-4.19-3.094-9.272-4.706-14.35-5.607v39.582c6.035 1.445 12.075 3.021 17.857 5.301 8.739 3.446 17.02 8.73 21.79 17.062-.74-1.298-1.46-2.563.025.043 1.458 2.56.762 1.34.03.057 3.795 6.688 5.042 14.685 4.217 22.282z"/><path d="M242.493 300.169l-.156.278c.036-.063.09-.158.156-.278z"/></symbol><symbol viewBox="0 0 41.999 41.999" id="play-button" xmlns="http://www.w3.org/2000/svg"><path d="M36.068 20.176l-29-20A1 1 0 1 0 5.5.999v40a1 1 0 0 0 1.568.823l29-20a.999.999 0 0 0 0-1.646z"/></symbol><symbol viewBox="0 0 510 510" id="registration" xmlns="http://www.w3.org/2000/svg"><path d="M150.45 206.55l-35.7 35.7L229.5 357l255-255-35.7-35.7-219.3 219.3-79.05-79.05zM459 255c0 112.2-91.8 204-204 204S51 367.2 51 255 142.8 51 255 51c20.4 0 38.25 2.55 56.1 7.65l40.801-40.8C321.3 7.65 288.15 0 255 0 114.75 0 0 114.75 0 255s114.75 255 255 255 255-114.75 255-255h-51z"/></symbol><symbol viewBox="0 0 52.966 52.966" id="search" xmlns="http://www.w3.org/2000/svg"><path d="M51.704 51.273L36.845 35.82c3.79-3.801 6.138-9.041 6.138-14.82 0-11.58-9.42-21-21-21s-21 9.42-21 21 9.42 21 21 21c5.083 0 9.748-1.817 13.384-4.832l14.895 15.491a.998.998 0 0 0 1.414.028 1 1 0 0 0 .028-1.414zM21.983 40c-10.477 0-19-8.523-19-19s8.523-19 19-19 19 8.523 19 19-8.524 19-19 19z"/></symbol><symbol viewBox="0 0 189.473 189.473" id="telegram-logo" xmlns="http://www.w3.org/2000/svg"><path d="M152.531 179.476c-1.48 0-2.95-.438-4.211-1.293l-47.641-32.316-25.552 18.386a7.502 7.502 0 0 1-11.633-4.174l-12.83-48.622L4.821 93.928a7.501 7.501 0 0 1-.094-13.975l174.312-69.36a7.503 7.503 0 0 1 10.282 8.408L159.898 173.38a7.499 7.499 0 0 1-7.367 6.096zm-47.669-48.897l42.437 28.785L170.193 39.24l-82.687 79.566 17.156 11.638c.069.043.135.089.2.135zm-35.327-6.401l5.682 21.53 12.242-8.809-16.03-10.874a7.478 7.478 0 0 1-1.894-1.847zM28.136 86.782l31.478 12.035a7.5 7.5 0 0 1 4.573 5.092l3.992 15.129a7.504 7.504 0 0 1 2.259-4.624L149.227 38.6 28.136 86.782z"/></symbol><symbol viewBox="0 0 64 64" id="up-arrow" xmlns="http://www.w3.org/2000/svg"><path d="M3.352 48.296l28.56-28.328 28.58 28.347c.397.394.917.59 1.436.59.52 0 1.04-.196 1.436-.59a2.003 2.003 0 0 0 0-2.849l-29.98-29.735c-.2-.2-.494-.375-.757-.475a2.052 2.052 0 0 0-2.166.456L.479 45.447a2.003 2.003 0 0 0 0 2.849 2.045 2.045 0 0 0 2.873 0z"/></symbol><symbol viewBox="-822 823.1 56.7 56.7" id="visa" xmlns="http://www.w3.org/2000/svg"><path d="M-797.8 845.3l-3.3 15.2h4l3.2-15.2zm-5.8 0l-4.1 10.3-1.7-8.8c-.2-1-1-1.5-1.8-1.5h-6.7l-.1.4c1.4.3 2.9.8 3.9 1.3.6.3.7.6.9 1.3l3.1 12.1h4.2l6.4-15.2h-4.1zm31.1 0h-3.4c-.8 0-1.4.4-1.7 1.1l-5.9 14.1h4.1l.8-2.3h5l.5 2.3h3.6l-3-15.2zm-4.8 9.8l2.1-5.7 1.2 5.7h-3.3zm-11.4-5.6c0-.5.5-1.1 1.7-1.3.6-.1 2.1-.1 3.9.7l.7-3.2c-.9-.3-2.2-.7-3.7-.7-3.9 0-6.6 2.1-6.6 5 0 2.2 2 3.4 3.4 4.1 1.5.7 2 1.2 2 1.9 0 1-1.2 1.5-2.4 1.5-2 0-3.1-.5-4-1l-.7 3.3c.9.4 2.6.8 4.4.8 4.1 0 6.8-2 6.8-5.2 0-3.8-5.6-4.1-5.5-5.9z"/></symbol><symbol viewBox="0 0 548.358 548.358" id="vk-social" xmlns="http://www.w3.org/2000/svg"><path d="M545.451 400.298c-.664-1.431-1.283-2.618-1.858-3.569-9.514-17.135-27.695-38.167-54.532-63.102l-.567-.571-.284-.28-.287-.287h-.288c-12.18-11.611-19.893-19.418-23.123-23.415-5.91-7.614-7.234-15.321-4.004-23.13 2.282-5.9 10.854-18.36 25.696-37.397 7.807-10.089 13.99-18.175 18.556-24.267 32.931-43.78 47.208-71.756 42.828-83.939l-1.701-2.847c-1.143-1.714-4.093-3.282-8.846-4.712-4.764-1.427-10.853-1.663-18.278-.712l-82.224.568c-1.332-.472-3.234-.428-5.712.144l-3.713.859-1.431.715-1.136.859c-.952.568-1.999 1.567-3.142 2.995-1.137 1.423-2.088 3.093-2.848 4.996-8.952 23.031-19.13 44.444-30.553 64.238-7.043 11.803-13.511 22.032-19.418 30.693-5.899 8.658-10.848 15.037-14.842 19.126-4 4.093-7.61 7.372-10.852 9.849-3.237 2.478-5.708 3.525-7.419 3.142-1.715-.383-3.33-.763-4.859-1.143-2.663-1.714-4.805-4.045-6.42-6.995-1.622-2.95-2.714-6.663-3.285-11.136-.568-4.476-.904-8.326-1-11.563-.089-3.233-.048-7.806.145-13.706.198-5.903.287-9.897.287-11.991 0-7.234.141-15.085.424-23.555.288-8.47.521-15.181.716-20.125.194-4.949.284-10.185.284-15.705s-.336-9.849-1-12.991a44.442 44.442 0 0 0-2.99-9.137c-1.335-2.95-3.289-5.232-5.853-6.852-2.569-1.618-5.763-2.902-9.564-3.856-10.089-2.283-22.936-3.518-38.547-3.71-35.401-.38-58.148 1.906-68.236 6.855-3.997 2.091-7.614 4.948-10.848 8.562-3.427 4.189-3.905 6.475-1.431 6.851 11.422 1.711 19.508 5.804 24.267 12.275l1.715 3.429c1.334 2.474 2.666 6.854 3.999 13.134 1.331 6.28 2.19 13.227 2.568 20.837.95 13.897.95 25.793 0 35.689-.953 9.9-1.853 17.607-2.712 23.127-.859 5.52-2.143 9.993-3.855 13.418-1.715 3.426-2.856 5.52-3.428 6.28-.571.76-1.047 1.239-1.425 1.427a21.387 21.387 0 0 1-7.71 1.431c-2.667 0-5.901-1.334-9.707-4-3.805-2.666-7.754-6.328-11.847-10.992-4.093-4.665-8.709-11.184-13.85-19.558-5.137-8.374-10.467-18.271-15.987-29.691l-4.567-8.282c-2.855-5.328-6.755-13.086-11.704-23.267-4.952-10.185-9.329-20.037-13.134-29.554-1.521-3.997-3.806-7.04-6.851-9.134l-1.429-.859c-.95-.76-2.475-1.567-4.567-2.427a30.301 30.301 0 0 0-6.567-1.854l-78.229.568c-7.994 0-13.418 1.811-16.274 5.428l-1.143 1.711c-.571.953-.859 2.475-.859 4.57 0 2.094.571 4.664 1.714 7.707 11.42 26.84 23.839 52.725 37.257 77.659 13.418 24.934 25.078 45.019 34.973 60.237 9.897 15.229 19.985 29.602 30.264 43.112 10.279 13.515 17.083 22.176 20.412 25.981 3.333 3.812 5.951 6.662 7.854 8.565l7.139 6.851c4.568 4.569 11.276 10.041 20.127 16.416 8.853 6.379 18.654 12.659 29.408 18.85 10.756 6.181 23.269 11.225 37.546 15.126 14.275 3.905 28.169 5.472 41.684 4.716h32.834c6.659-.575 11.704-2.669 15.133-6.283l1.136-1.431c.764-1.136 1.479-2.901 2.139-5.276.668-2.379 1-5 1-7.851-.195-8.183.428-15.558 1.852-22.124 1.423-6.564 3.045-11.513 4.859-14.846 1.813-3.33 3.859-6.14 6.136-8.418 2.282-2.283 3.908-3.666 4.862-4.142.948-.479 1.705-.804 2.276-.999 4.568-1.522 9.944-.048 16.136 4.429 6.187 4.473 11.99 9.996 17.418 16.56 5.425 6.57 11.943 13.941 19.555 22.124 7.617 8.186 14.277 14.271 19.985 18.274l5.708 3.426c3.812 2.286 8.761 4.38 14.853 6.283 6.081 1.902 11.409 2.378 15.984 1.427l73.087-1.14c7.229 0 12.854-1.197 16.844-3.572 3.998-2.379 6.373-5 7.139-7.851.764-2.854.805-6.092.145-9.712-.677-3.611-1.344-6.136-2.008-7.563z"/></symbol><symbol viewBox="0 0 56.48 56.48" id="yandex-pay-card-logo" xmlns="http://www.w3.org/2000/svg"><path d="M5.937 21.055c-.017.04-.038.08-.051.122-.157.528-.036 1.011.389 1.428.371.364.879.244 1.366.249v-2.607c-.971-.122-1.388.081-1.704.808zm.33 8.281c.001.181.003.344.001.508-.008 1.063-.006 2.129-.307 3.168-.149.518-.396 1.016-.599 1.521h2.37v-5.197H6.267zm7.459.21c-.143-.242-.354-.429-.71-.445-.364-.018-.581.17-.744.399-.383.539-.495 1.138-.555 1.776h2.375c.003-.605-.049-1.188-.366-1.73zm11.821 3.167c-.162-.781-.789-1.094-1.728-.895-.069.015-.165.104-.165.159-.012.83-.008 1.662-.008 2.505.938.223 1.716-.138 1.895-.896.066-.281.064-.591.006-.873z"/><path d="M55.026 9.939H1.454C.65 9.939 0 10.59 0 11.393v33.694c0 .803.65 1.455 1.454 1.455h53.572c.804 0 1.454-.651 1.454-1.454V11.393c0-.803-.65-1.454-1.454-1.454zm-31.98 13.543c.047-.501.193-.978.563-1.39.481-.534 1.363-.635 2.007-.212l-.245.308c-.028.004-.045.011-.06.007-.78-.211-1.249-.022-1.485.617a2.537 2.537 0 0 0-.11 1.428c.192.924.923 1.244 1.985.89.098.43.042.483-.459.6-.709.167-1.4-.081-1.797-.609-.38-.505-.451-1.064-.399-1.639zM5.781 20.119a1.741 1.741 0 0 1 1.205-.437c.34.001.679 0 1.02 0 .37.001.371 0 .371.297v5.7h-.716v-2.195c-.422-.081-.444-.073-.623.203-.388.602-.785 1.2-1.159 1.807-.098.157-.207.225-.419.206-.16-.014-.324-.003-.537-.003l1.524-2.294c-1.494-.403-1.789-2.291-.666-3.284zm3.966 16.68h-1.05v-1.473H4.782v1.467H3.701V34.57c.026-.007.052-.025.073-.021.4.066.557-.118.688-.396.396-.847.594-1.726.667-2.622.082-1.009.106-2.022.156-3.051h3.621v6.062h.841v2.257zm.402-11.107h-.637v-3.908h.618v1.584h1.182v-1.579h.633v3.905h-.629v-1.752h-1.167v1.75zm1.766 9.579a2.132 2.132 0 0 1-1.064-1.161c-.642-1.582-.57-3.15.268-4.673.286-.519.711-.957 1.408-1.146.671-.182 1.209-.051 1.656.399.505.51.749 1.118.872 1.751.097.506.102 1.027.15 1.562h-3.456c.01.644.001 1.252.234 1.842.302.768.994 1.06 2.053.844.327-.067.635-.189.978-.293.066.158.14.342.213.521-.924.648-2.399.802-3.312.354zm4.079-8.849h-.557v-.795h-2.213v.799h-.589v-1.23c.317.042.378-.159.46-.347.332-.762.361-1.559.395-2.355.01-.229.001-.457.001-.711h2.043v3.39l.46.018v1.231zm.864-4.039c.108-.19.262-.377.445-.523.487-.391 1.1-.315 1.454.161.403.542.481 1.138.439 1.774h-1.935c-.014.425-.025.831.204 1.209.195.323.561.437 1.074.333.184-.037.36-.101.543-.154.208.222.2.317-.101.422a3.81 3.81 0 0 1-.844.205c-.594.063-1.106-.191-1.33-.688a3.717 3.717 0 0 1-.297-1.062 2.653 2.653 0 0 1 .348-1.677zm3.993 12.997h-1.122v-3.125h-1.534c-.53 0-.53-.002-.53.442v2.683h-1.118v-6.902h1.104V31.3h2.07v-2.826c.352 0 .673-.006.992.007.052.002.105.079.147.128.017.02.003.056.003.085l.001 6.483c0 .062-.008.127-.013.203zm1.309-9.779c-.068-.008-.14-.093-.182-.157-.322-.476-.637-.955-.956-1.434a.618.618 0 0 0-.215-.206c-.04.152-.11.304-.116.456-.016.443-.006.886-.006 1.339h-.62v-3.815h.611v1.68c.096-.093.146-.134.186-.181.352-.419.717-.831 1.046-1.263.15-.196.317-.285.59-.248.068.009.138.001.259.001-.064.084-.104.141-.15.197-.375.45-.744.903-1.13 1.346-.104.119-.098.206-.017.326.428.641.846 1.284 1.294 1.967-.225 0-.412.015-.594-.008zm4.756 8.427c-.364.832-1.141 1.238-2.16 1.312-.68.051-1.369.01-2.082.01v-6.872h.964v2.473c.479 0 .931-.028 1.375.006 1.127.091 1.833.656 2.02 1.585.1.505.096 1.007-.117 1.486zm5.285-4.861h-3.112v6.212h-1.023v-6.908h4.137c0 .231 0 .45-.002.696zm3.758 6.213v-4.537l-2.097 4.543h-1.098v-6.912h1.119v4.259l.053.009c.195-.417.394-.832.587-1.249.44-.952.883-1.901 1.319-2.854.061-.137.142-.188.322-.181.346.015.694.005 1.055.005l.001 6.917h-1.261zm16.521-.133c-.24.197-.535.264-.855.264-1.475.002-2.947 0-4.42 0-1.482 0-2.964.002-4.445 0-.742-.002-1.278-.338-1.485-.924a.805.805 0 0 1-.036-.254c-.002-1.724.003-3.447-.004-5.171-.003-.608.342-1.034.961-1.33 2.102-1.001 4.204-2.002 6.305-3.005.344-.164.694-.277 1.09-.135.344.125.492.366.494.655.006 1.825.024 3.65-.01 5.473-.011.563-.372 1.011-1.041 1.235-1.484.498-2.971.986-4.456 1.479-.371.123-.743.243-1.112.373a1.157 1.157 0 0 0-.326.174c-.069.059-.157.18-.129.229a.396.396 0 0 0 .281.149c.23.001.468-.024.692-.073 2.001-.434 3.999-.879 5.999-1.32.643-.143 1.18-.706 1.182-1.256.006-1.049.01-2.098-.004-3.146-.002-.215.069-.304.338-.276.139.015.278 0 .418.002.459.006.773.231.84.606.019.104.021.216.021.322.002 1.681.002 3.36.001 5.042 0 .317.014.635-.299.887z"/><path d="M47.579 27.765c-.496.063-.82.306-.97.692-.163.417.099.748.569.75.562.001 1.133-.528 1.062-.985-.047-.295-.333-.498-.661-.457zm-33.507-5.502c-.043.991.038 1.985-.559 2.908h1.376v-2.908h-.817zm4.28.075c-.193-.283-.554-.292-.771-.021-.25.313-.323.667-.343 1.049h1.348c.008-.366-.018-.713-.234-1.028z"/></symbol></svg>