<?xml version="1.0" encoding="utf-8"?><svg xmlns="http://www.w3.org/2000/svg" xmlns:xlink="http://www.w3.org/1999/xlink"><symbol viewBox="0 0 428.429 428.429" id="basket" xmlns="http://www.w3.org/2000/svg"><path d="M426.59 170.59c-2.597-21.785-22.362-37.34-44.147-34.743H360.5C357.122 59.212 293.531-.91 216.827.01h-5.224C134.898-.91 71.308 59.212 67.929 135.847H45.986c-21.785-2.597-41.55 12.958-44.147 34.743-2.597 21.785 12.958 41.55 34.743 44.147v162.482c-.006 28.277 22.912 51.205 51.189 51.211.352 0 .704-.004 1.056-.011h250.775c28.271.577 51.657-21.873 52.234-50.144.007-.352.011-.704.011-1.056V214.737c21.785-2.597 37.34-22.362 34.743-44.147zM211.602 20.908h5.224c64.558.629 117.896 50.562 122.775 114.939H88.827c4.88-64.377 58.217-114.309 122.775-114.939zm159.347 356.311c.01 16.735-13.549 30.31-30.284 30.32-.354 0-.709-.006-1.063-.018H88.827c-16.725.577-30.752-12.514-31.329-29.239a31.404 31.404 0 0 1-.018-1.063V214.215h313.469v163.004zm11.494-183.902H45.986c-10.099 0-18.286-8.187-18.286-18.286 0-10.099 8.187-18.286 18.286-18.286h336.457c10.099 0 18.286 8.187 18.286 18.286 0 10.099-8.187 18.286-18.286 18.286z"/><path d="M214.215 365.202c5.771 0 10.449-4.678 10.449-10.449v-83.592c.297-5.474-3.901-10.152-9.375-10.449a10.125 10.125 0 0 0-1.074 0c-5.474-.297-10.152 3.901-10.449 9.375-.019.358-.019.716 0 1.074v83.592c0 5.771 4.678 10.449 10.449 10.449zm78.367 0c5.771 0 10.449-4.678 10.449-10.449v-83.592c.297-5.474-3.901-10.152-9.375-10.449a10.125 10.125 0 0 0-1.074 0c-5.474-.297-10.152 3.901-10.449 9.375-.019.358-.019.716 0 1.074v83.592c0 5.771 4.678 10.449 10.449 10.449zm-156.735 0c5.771 0 10.449-4.678 10.449-10.449v-83.592c.297-5.474-3.901-10.152-9.375-10.449a10.125 10.125 0 0 0-1.074 0c-5.474-.297-10.152 3.901-10.449 9.375-.019.358-.019.716 0 1.074v83.592c0 5.771 4.679 10.449 10.449 10.449z"/></symbol><symbol viewBox="0 0 129 129" id="down-arrow" xmlns="http://www.w3.org/2000/svg"><path d="M121.3 34.6c-1.6-1.6-4.2-1.6-5.8 0l-51 51.1-51.1-51.1c-1.6-1.6-4.2-1.6-5.8 0-1.6 1.6-1.6 4.2 0 5.8l53.9 53.9c.8.8 1.8 1.2 2.9 1.2 1 0 2.1-.4 2.9-1.2l53.9-53.9c1.7-1.6 1.7-4.2.1-5.8z"/></symbol><symbol viewBox="0 0 129 129" id="favorites" xmlns="http://www.w3.org/2000/svg"><path d="M121.6 40.1c-3.3-16.6-15.1-27.3-30.3-27.3-8.5 0-17.7 3.5-26.7 10.1-9.1-6.8-18.3-10.3-26.9-10.3-15.2 0-27.1 10.8-30.3 27.6-4.8 24.9 10.6 58 55.7 76 .5.2 1 .3 1.5.3s1-.1 1.5-.3c45-18.4 60.3-51.4 55.5-76.1zm-57 67.9C25 91.6 11.3 63 15.4 41.7c2.4-12.7 11.2-21 22.3-21 7.5 0 15.9 3.6 24.3 10.5 1.5 1.2 3.6 1.2 5.1 0C75.5 24.5 83.8 21 91.3 21c11.1 0 19.8 8.1 22.3 20.7 4.1 21.1-9.5 49.6-49 66.3z"/></symbol><symbol viewBox="0 0 487.7 487.7" id="list" xmlns="http://www.w3.org/2000/svg"><path d="M80.2 62.7c-4.8-4.8-12.5-4.8-17.3-.1-4.9 4.8-4.9 12.5-.1 17.3L92 109.3c2.3 2.3 5.4 3.6 8.7 3.6 3.2 0 6.3-1.3 8.6-3.6l88.9-88.4c4.8-4.8 4.8-12.5.1-17.3-4.8-4.8-12.5-4.8-17.3 0l-26.9 26.7C139.8 15.5 119.9 7 99 7 56.7 7 22.3 41.4 22.3 83.7s34.4 76.7 76.7 76.7c34.1 0 63.6-21.9 73.5-54.5 2-6.5-1.7-13.3-8.2-15.3-6.5-1.9-13.3 1.7-15.3 8.2-6.6 21.8-27.2 37.1-50 37.1-28.8 0-52.2-23.4-52.2-52.2S70.2 31.5 99 31.5c14.3 0 27.9 6 37.7 16.2l-35.9 35.7-20.6-20.7zM99 170.6c-42.3 0-76.7 34.4-76.7 76.7S56.7 324 99 324s76.7-34.4 76.7-76.7-34.4-76.7-76.7-76.7zm0 128.9c-28.8 0-52.2-23.4-52.2-52.2s23.4-52.2 52.2-52.2 52.2 23.4 52.2 52.2-23.4 52.2-52.2 52.2zM175.7 411c0-42.3-34.4-76.7-76.7-76.7S22.3 368.7 22.3 411s34.4 76.7 76.7 76.7 76.7-34.4 76.7-76.7zM99 463.3c-28.8 0-52.2-23.4-52.2-52.2s23.4-52.2 52.2-52.2 52.2 23.4 52.2 52.2-23.4 52.2-52.2 52.2zM453.1 235H214.8c-6.8 0-12.3 5.5-12.3 12.3s5.5 12.3 12.3 12.3h238.3c6.8 0 12.3-5.5 12.3-12.3s-5.5-12.3-12.3-12.3zm0-163.5H214.8c-6.8 0-12.3 5.5-12.3 12.3s5.5 12.3 12.3 12.3h238.3c6.8 0 12.3-5.5 12.3-12.3s-5.5-12.3-12.3-12.3zm0 327.3H214.8c-6.8 0-12.3 5.5-12.3 12.3s5.5 12.3 12.3 12.3h238.3c6.8 0 12.3-5.5 12.3-12.3 0-6.9-5.5-12.3-12.3-12.3z"/></symbol><symbol viewBox="0 0 512 512" id="login" xmlns="http://www.w3.org/2000/svg"><path d="M341.598 290.667a10.626 10.626 0 0 0 1.365-11.349l-.555-1.195c4.501-6.187 10.261-15.957 10.261-32.768 0-7.552 2.24-10.667 2.581-10.987a10.668 10.668 0 0 0 7.317-6.379c1.195-2.923 11.435-29.077 11.435-46.635 0-.896-.107-1.771-.299-2.603-1.173-4.672-4.437-11.52-10.347-15.531v-56.555c0-34.368-10.496-48.448-21.568-56.64C339.699 33.472 321.971 0 256.67 0c-66.091 0-106.667 62.123-106.667 106.667v56.555c-5.909 4.011-9.173 10.859-10.347 15.531-.213.853-.32 1.707-.32 2.581 0 17.557 10.24 43.712 11.435 46.635 1.28 3.179 3.136 5.291 6.485 6.123 1.173.576 3.413 3.691 3.413 11.243 0 20.267 15.211 42.795 31.531 57.771-2.219 13.973-12.651 50.816-34.901 60.117l-94.677 31.552c-24.341 8.107-42.581 27.819-48.832 52.736L.968 498.752c-.789 3.179-.085 6.571 1.963 9.152 2.048 2.581 5.12 4.096 8.405 4.096h.021l276.011-.277c5.867 0 10.624-4.928 10.624-10.816v-128c0-11.819 6.635-22.613 17.28-28.203a10.671 10.671 0 0 0 5.589-7.808c2.625-16.917 9.793-32.896 20.737-46.229z"/><path d="M500.681 362.219h-10.667v-10.667c0-41.173-33.493-74.667-74.667-74.667s-74.667 33.493-74.667 74.667v10.667h-10.667c-5.888 0-10.667 4.779-10.667 10.667v128c0 5.888 4.779 10.667 10.667 10.667H500.68c5.888 0 10.667-4.779 10.667-10.667v-128c0-5.889-4.778-10.667-10.666-10.667zm-74.667 82.069v13.952c0 5.888-4.779 10.667-10.667 10.667s-10.667-4.779-10.667-10.667v-13.952c-6.251-3.733-10.667-10.261-10.667-18.048 0-11.755 9.557-21.333 21.333-21.333s21.333 9.579 21.333 21.333c.002 7.787-4.415 14.315-10.665 18.048zm42.667-82.069H362.014v-10.667c0-29.397 23.915-53.333 53.333-53.333s53.333 23.936 53.333 53.333v10.667z"/></symbol><symbol viewBox="0 0 424.98 424.98" id="payment" xmlns="http://www.w3.org/2000/svg"><path d="M241.395 282.304c-1.587-1.738-3.595-3.038-5.67-4.121-4.518-2.356-9.459-3.785-14.365-5.075v38.016c7.963-.9 17.105-3.79 21.286-11.224 1.996-3.551 2.393-7.914 1.58-11.867-.441-2.142-1.352-4.108-2.831-5.729z"/><path d="M242.604 299.973l.042-.073a4.74 4.74 0 0 0-.042.073zm-58.595-78.441c-1.369 1.999-2.228 4.27-2.465 6.684-.237 2.419-.104 5.11.815 7.387.875 2.17 2.708 3.772 4.6 5.062 2.123 1.444 4.458 2.572 6.836 3.528 1.995.803 4.239 1.571 6.658 2.313v-34.4c-6.111 1.304-12.788 4.088-16.444 9.426zm58.795 78.087c-.05.089-.104.182-.157.28.062-.114.111-.198.157-.28zm.2-.356c.013-.024.015-.026 0 0z"/><path d="M234.753 92.469c32.329-27.158 53.931-88.341 40.637-91.017-17.664-3.557-56.022 12.04-74.562 14.788-26.296 3.175-54.936-28.515-71.012-10.851-13.071 14.362 9.371 66.592 44.482 89.346-104.752 51.484-251.988 309.938 4.873 328.691 355.411 25.949 177.444-280.787 55.582-330.957zm30.523 203.829c-1.093 10.076-6.433 19.188-14.415 25.374-8.428 6.532-18.999 9.57-29.502 10.421v11.133c0 2.979-1.301 5.86-3.531 7.832-3.065 2.712-7.569 3.381-11.289 1.667-3.673-1.69-6.086-5.457-6.086-9.499v-12.168a68.538 68.538 0 0 1-5.356-1.234c-9.816-2.697-18.921-7.954-25.572-15.732-3.313-3.877-6.014-8.276-7.882-13.025a47.162 47.162 0 0 1-1.304-3.783c-.345-1.157-.701-2.333-.824-3.539a10.46 10.46 0 0 1 1.137-5.889c1.938-3.707 6.022-5.946 10.192-5.574 4.104.364 7.701 3.212 8.993 7.124.398 1.205.668 2.44 1.115 3.632a23.292 23.292 0 0 0 1.607 3.431 26.647 26.647 0 0 0 4.59 5.875c3.694 3.559 8.399 5.872 13.304 7.248V268.23c-9.591-2.483-19.491-5.69-27.411-11.848-3.849-2.994-7.115-6.714-9.254-11.117-2.257-4.647-3.192-9.824-3.23-14.966-.039-5.221.953-10.396 3.131-15.153 2.04-4.454 4.977-8.453 8.578-11.768 7.7-7.087 17.928-11.04 28.187-12.492v-11.557c0-2.978 1.301-5.86 3.531-7.832 3.066-2.711 7.568-3.381 11.289-1.667 3.672 1.691 6.086 5.457 6.086 9.499v11.494c1.367.172 2.73.378 4.086.624 10.074 1.823 19.927 5.983 27.294 13.246a39.888 39.888 0 0 1 8.356 12.009 38.31 38.31 0 0 1 1.477 3.824c.396 1.213.794 2.462.983 3.728a10.467 10.467 0 0 1-.871 5.958c-1.772 3.788-5.746 6.2-9.927 6.021-4.108-.179-7.83-2.854-9.301-6.694-.438-1.142-.657-2.351-1.104-3.49a18.419 18.419 0 0 0-1.708-3.292c-1.308-2.02-3.003-3.752-4.938-5.179-4.19-3.094-9.272-4.706-14.35-5.607v39.582c6.035 1.445 12.075 3.021 17.857 5.301 8.739 3.446 17.02 8.73 21.79 17.062-.74-1.298-1.46-2.563.025.043 1.458 2.56.762 1.34.03.057 3.795 6.688 5.042 14.685 4.217 22.282z"/><path d="M242.493 300.169l-.156.278c.036-.063.09-.158.156-.278z"/></symbol><symbol viewBox="0 0 510 510" id="registration" xmlns="http://www.w3.org/2000/svg"><path d="M150.45 206.55l-35.7 35.7L229.5 357l255-255-35.7-35.7-219.3 219.3-79.05-79.05zM459 255c0 112.2-91.8 204-204 204S51 367.2 51 255 142.8 51 255 51c20.4 0 38.25 2.55 56.1 7.65l40.801-40.8C321.3 7.65 288.15 0 255 0 114.75 0 0 114.75 0 255s114.75 255 255 255 255-114.75 255-255h-51z"/></symbol><symbol viewBox="0 0 52.966 52.966" id="search" xmlns="http://www.w3.org/2000/svg"><path d="M51.704 51.273L36.845 35.82c3.79-3.801 6.138-9.041 6.138-14.82 0-11.58-9.42-21-21-21s-21 9.42-21 21 9.42 21 21 21c5.083 0 9.748-1.817 13.384-4.832l14.895 15.491a.998.998 0 0 0 1.414.028 1 1 0 0 0 .028-1.414zM21.983 40c-10.477 0-19-8.523-19-19s8.523-19 19-19 19 8.523 19 19-8.524 19-19 19z"/></symbol><symbol viewBox="0 0 64 64" id="up-arrow" xmlns="http://www.w3.org/2000/svg"><path d="M3.352 48.296l28.56-28.328 28.58 28.347c.397.394.917.59 1.436.59.52 0 1.04-.196 1.436-.59a2.003 2.003 0 0 0 0-2.849l-29.98-29.735c-.2-.2-.494-.375-.757-.475a2.052 2.052 0 0 0-2.166.456L.479 45.447a2.003 2.003 0 0 0 0 2.849 2.045 2.045 0 0 0 2.873 0z"/></symbol></svg>